<?xml version="1.0" encoding="UTF-8" standalone="no"?>
<!-- Created for MapSVG plugin: http://mapsvg.com -->
<svg
   xmlns:mapsvg="http://mapsvg.com"
   xmlns:dc="http://purl.org/dc/elements/1.1/"
   xmlns:rdf="http://www.w3.org/1999/02/22-rdf-syntax-ns#"
   xmlns:svg="http://www.w3.org/2000/svg"
   xmlns="http://www.w3.org/2000/svg"
   mapsvg:geoViewBox="5.865010 55.057722 15.043380 47.269133"
   width="585.5141"
   height="792.66785">
 

  <path
     d="m 228.83486,363.9102 2.86,-1.05 -0.28,2.15 1.15,0.95 2.21,-1.37 1.62,1.6 3.58,-1.2 0.74,2.79 3.32,3.24 -0.72,0.96 -3.11,-1.69 -0.23,1.45 1.3,1.88 -1.5,0.31 -1.12,-1.29 0.99,2.85 -2.25,1.68 3.64,4.73 -0.99,2.44 1.07,2.88 -0.98,1.33 -3.22,0.4 -1.21,2.23 1.13,0.85 -0.53,0.91 -2.36,-0.51 1.91,2.26 2.74,2.05 1.76,-0.08 -0.1,1.42 2.52,-0.68 4.08,2.34 2.18,-1.15 0.28,-3.07 -2.13,1.75 -2.36,-4.51 2.58,-0.7 1.82,-1.76 1.76,0.26 -0.19,-2.29 1.46,-0.38 1.3,0.95 0.07,1.92 1.6,1.23 -0.92,-4.38 1.77,0.93 0.24,-0.96 1.24,-0.28 1.83,2.51 -0.16,1.79 0,0 -0.2,2.13 1.49,3.53 -0.58,1.27 1.9,0.69 0.21,1.61 5.3,0.6 -0.53,2.54 1.95,1.07 -0.58,1.67 2.82,1.13 1.66,-0.55 0.61,1.36 1.09,-0.46 1.92,1.99 2.63,0.68 -2.23,3.5 0.61,2.59 -0.81,1.3 -2.1,-4.07 -2.95,1.4 3.51,2.32 -1.87,3.21 0.58,1.58 -0.84,0.95 4.11,2.46 0.61,0.93 -1.39,0.75 0.72,1.09 -3.68,1.52 -1.74,-1.78 -1.07,0.65 -4.04,-0.92 -1.26,3.19 1.36,1.41 0.14,1.85 1.29,0.45 -2.17,0.73 -0.31,-0.6 -0.78,0.9 -3.94,-0.78 0.23,1.89 0.68,-0.93 1.48,0.1 -1.03,2.39 2.57,-1.39 2.46,2.16 -0.2,1.1 0.75,-0.08 0.08,0.78 -2.41,1.69 -0.07,1.75 1.06,-0.44 -0.7,1.84 -1.34,-0.26 -0.57,1.14 -1.01,-0.46 0,0 -0.41,-0.15 0,0 -1.42,1.08 -0.58,2.17 0.62,2.6 -1.76,-0.04 -0.26,1.52 1.07,0.34 0.1,1.67 -2.02,3.36 0.92,1.15 -2.79,2.39 -0.17,2.99 5.32,1.09 0.5,-1.19 -1.2,-1.54 0.3,-1.06 2.99,-0.91 3.41,0.53 1.82,4.86 -2.12,-0.09 -0.77,1.28 1.54,5.49 -1.44,2.66 0.2,1.31 0,0 -1.5,4.94 -1.26,0.49 -2.54,3.77 -3.65,2.03 -1.26,0.39 -0.71,-1.02 -0.79,1.32 -3.18,-1.63 -0.41,-1.19 -1.35,0.64 -1.22,-0.64 -1.83,6.93 0.87,1.43 -0.02,3.15 -2.87,2.87 -3.02,0.98 -1.06,2.05 1.78,0.95 -0.07,0.75 -5.2,1.17 -0.42,-1.08 -2.18,0.78 -2.66,-1.68 -0.33,1.51 1.3,2.71 -0.97,0.61 -0.13,1.62 0,0 1.83,0.92 0,0 0.09,0.13 0,0 -0.49,1.62 0,0 -0.82,0.42 0.29,5.03 -4.99,1.01 -2.02,-0.59 -2.04,-4.06 -1.84,-0.02 -0.8,-0.89 -1.18,0.73 -3.54,-0.52 -2.12,-1.05 -2.25,1.1 0.33,1.11 -2.51,3.48 0.17,-2.51 -2.23,-0.94 -6.39,1.5 -1.36,1.94 0.05,2.24 -1.4,2.08 3.33,0.76 0.35,3.55 0.96,1.08 -1.51,0.14 -0.48,1.4 0.3,6.66 1.75,4.27 -1.1,0.06 0.2,2.22 1.61,-0.21 -0.53,0.68 0.75,0.74 1.34,-1.46 -0.54,2.87 0.82,2.57 2.38,-0.46 0.44,1.36 -1.73,2.3 2.58,1.76 -1.61,2.65 0.37,1.29 -2.44,0.74 0.77,5.11 -2.24,2.14 0.01,1.68 1.05,0.18 1.24,2.27 0,0 -0.18,1.68 -1.08,-0.09 -0.61,-1.4 -0.09,1.04 3.41,4.71 -1.24,0.72 -0.44,-1.6 -2.21,-0.4 -0.92,1.65 0,0 -0.26,0.48 0,0 -1.36,1.06 -2.54,-1.25 -2.16,0.62 0.15,2.06 -0.86,-0.18 -0.58,1.43 1.19,1.41 -2.35,1.75 -0.69,-0.61 -0.53,2.2 -2.8,2.55 -1.16,-1.21 -1.07,1.07 -0.85,-1.33 2.31,-2.29 -0.77,-3.37 1.72,-1.5 0.61,1.7 0.93,-0.07 1.49,-1.74 -0.09,-1.78 -3.32,0.18 -0.94,0.9 -0.93,-1.38 0.34,-1.83 -1.62,1.25 -4.13,-0.91 0,0 0,0.27 0,0 -1.97,-1.7 0.21,-1.28 -1.58,-2.64 1.07,-2.11 -1.74,-1.91 0.73,-0.53 0.4,1.37 0.3,-1.47 -6.19,1.33 1.32,6.75 -0.53,1.28 -0.73,-0.33 -2.24,1.66 -5.46,-6.77 -1.76,-0.6 -1.61,0.57 0,0 -2.45,-4.19 -1.58,-6.45 5.02,-2.94 2.63,-3.95 -0.48,-0.68 -3.06,0.05 -2.79,-5.35 0.33,-3.25 -2.54,-2.13 0.65,-3.96 -2.1,-5.8 -4.95,-5.02 -3.86,-0.78 -9.16,3.11 -4.53,2.55 -5.33,0.6 -1.16,-0.84 -0.9,-3.22 -5.07,-4.42 1.88,-2.57 2.23,-0.03 -0.45,-1.44 1.33,-2.84 2.03,1.25 1.14,-0.7 1.8,1.86 -0.56,-3.12 0.72,-0.99 -3.07,-2.41 -0.08,-1.32 1.72,-1.2 0.01,-0.95 2.3,-0.63 0.26,-0.96 2.27,-0.83 0.14,-1 1.54,1.98 1.31,0.19 1.28,-2.11 0,0 -0.26,-0.35 0,0 -1.7,-1.67 0.92,-1.34 2.36,-0.14 0.43,1.08 1.68,0.11 0.81,-3.84 -1.05,-1.05 -0.05,-1.68 -1.9,-0.55 0.29,-1.55 -1.07,-2.65 -0.88,-0.08 -0.18,-1.04 -1.75,0.1 0.4,-1.58 -2.32,0.09 -1.4,-1.15 1.38,-1.18 0.18,-1.16 -0.83,-0.36 2.25,-1.54 -2.07,-3.41 1.08,-3.75 3.08,-3.27 1.75,1.85 2.05,0.55 2.06,-1.74 1.03,-4.83 -1.63,-1.05 0.88,-2.26 -1.93,-2.74 0.94,-2.59 0,0 2.73,-4.88 -2.39,-4.53 0.25,-1.03 0,0 0.4,-0.13 0,0 8.07,-9.05 1.57,-0.11 0.95,2.09 3.35,0 4.68,-5.71 1.77,-0.12 -0.64,-2.24 0.53,-2.5 1.26,-0.33 -0.21,-0.73 3.98,-4.35 -1.16,-2.46 -0.89,0.31 1.39,-2.31 -1.56,-1.67 1.62,-1.73 1.92,-0.6 6.3,0.85 1.75,-1.34 2.3,-0.2 -1.23,-1.36 0,0 -0.24,0 0,0 -0.07,-1.42 3.96,-4.03 -0.69,-2.2 1.27,-1.03 -1.67,-1.01 -0.87,-3.28 0.56,-1.14 -0.92,-1.15 -1.91,-0.24 -6.14,2.94 -2.45,-3.07 4.01,-5.97 1.07,-0.78 1.11,0.44 0.29,-1.58 1.44,-0.47 -0.3,-1.15 1.11,-0.59 2.37,0.43 4.56,-1.87 2.18,0.21 1.14,1.13 2.32,-1.55 2.99,0.36 0.58,-3.9 -1.76,-0.32 -0.02,-1.82 -1.79,-3.4 8.12,-3.7 1.32,1.57 2.4,-0.07 0.92,0.82 -0.82,3.03 1.1,2.13 2.6,-0.58 1.46,0.72 1.54,-2.29 2.08,0.67 0.52,-3.14 2.51,-0.89 1.18,-1.57 1.61,0.04 0.51,-3.96 3.59,-3.95 -2.21,-2.4 5.42,-1.56 z"
     title="Hesse"
     id="DE-HE" />

   <circle r="2" cx="165.07486" cy="515.47486" fill="#7F0082" />
   <text x="170.47486" y="518.47486" fill="#B3B3B3" font="Poppins" font-size="6pt">Hessen,</text>
   <text x="170.47486" y="527.47486" fill="#B3B3B3" font="Poppins" font-size="6pt">Germany</text>
</svg>
