<?xml version="1.0" encoding="UTF-8" standalone="no"?>
<!-- Created for MapSVG plugin: http://mapsvg.com -->
<svg
   xmlns:mapsvg="http://mapsvg.com"
   xmlns:dc="http://purl.org/dc/elements/1.1/"
   xmlns:rdf="http://www.w3.org/1999/02/22-rdf-syntax-ns#"
   xmlns:svg="http://www.w3.org/2000/svg"
   xmlns="http://www.w3.org/2000/svg"
   mapsvg:geoViewBox="5.865010 55.057722 15.043380 47.269133"
   width="440.5141"
   height="360.66785"
   fill="#003482"
   style="fill:#003482"
   xmlns:xlink="http://www.w3.org/1999/xlink" >
   <g transform="scale(6)">
   <defs>
  <mask id="landscape" maskUnits="userSpaceOnUse">
    <path
     d="m 5.044857,13.7902 2.37,0.79 0.83,-0.53 1.45,1.01 1.29,-0.56 2.9,1.65 2.86,-1.33 1.15,1.92 1.69,0.25 -0.08,-0.93 1.59,-1.28 1,0.26 0.24,-1.17 0.72,0.71 1.44,-0.45 0.36,1.18 1.28,-1.76 2.39,-0.37 4.04,-3.31 1.57,0.77 1.8,-2.42 0.9,0.62 1.1,-1.45 2.18,0.33 0.71,-2.12 0.74,0.87 2.47,-0.9 -0.37,1.37 2.73,-1.84 2.06,1.02 1.81,2.92 0.76,-0.61 1.37,1.05 3.16,-0.3 0.15,1.28 0.76,0.9 1.71,0.02 0.09,1.01 3.4,-1.83 0.47,4.61 1.79,0.3 0.35,1.04 -1.35,0.56 -0.53,3.22 1.65,0.98 -1.19,1.7 -2.51,1.14 0.27,1.22 2.42,1.65 0.09,2.68 4.09,0.94 0.77,1.5 2.18,-0.54 -0.98,7.39 -1.43,1.54 -1.71,-0.06 0.49,0.91 -1.2,0.87 -0.04,1.23 -1.02,-0.96 -1.21,1.91 0.89,1.45 -0.46,1.73 4.21,4.61 0,0 -0.03,1.46 -2.32,-0.03 -2.06,2.78 -3.06,-1.46 -3.08,1.43 -0.87,-1.47 -1.71,0.96 -2.01,-2.1 -1.37,0.27 0.56,-1.27 -0.95,-0.32 -1.09,0.7 0.54,1.66 -2.15,1.76 -1.8,-5.5 0.44,-2.06 -1.39,0.31 -2.47,-2.17 -0.84,0.68 -2.18,-2 -2.08,1.37 -2.08,-1.33 -1.42,0.98 1.53,3.11 -1.69,2.69 -3.55,-1.51 -2.62,0.43 -1.72,-2.24 1.25,-1.82 -0.48,-1.2 -1.81,0.23 -0.4,-3.28 -1.83,-0.89 0.59,-2.06 -3.57,-2.1 -1.66,-1.91 0.21,-1.38 -1.55,-1.14 -0.19,-0.88 1.54,0.63 0.8,-1.58 -1.13,-0.29 0.17,-1.64 -2.93,-1.64 0.79,-2.22 -7.87,-5.01 -2.26,1.18 -1.66,-0.63 -0.69,-5.85 z"
     title="Saarland"
     id="DE-SL" fill="#003482"/>
     </mask>
     <mask id="outline" maskUnits="userSpaceOnUse">
      <path
     d="m 5.044857,13.7902 2.37,0.79 0.83,-0.53 1.45,1.01 1.29,-0.56 2.9,1.65 2.86,-1.33 1.15,1.92 1.69,0.25 -0.08,-0.93 1.59,-1.28 1,0.26 0.24,-1.17 0.72,0.71 1.44,-0.45 0.36,1.18 1.28,-1.76 2.39,-0.37 4.04,-3.31 1.57,0.77 1.8,-2.42 0.9,0.62 1.1,-1.45 2.18,0.33 0.71,-2.12 0.74,0.87 2.47,-0.9 -0.37,1.37 2.73,-1.84 2.06,1.02 1.81,2.92 0.76,-0.61 1.37,1.05 3.16,-0.3 0.15,1.28 0.76,0.9 1.71,0.02 0.09,1.01 3.4,-1.83 0.47,4.61 1.79,0.3 0.35,1.04 -1.35,0.56 -0.53,3.22 1.65,0.98 -1.19,1.7 -2.51,1.14 0.27,1.22 2.42,1.65 0.09,2.68 4.09,0.94 0.77,1.5 2.18,-0.54 -0.98,7.39 -1.43,1.54 -1.71,-0.06 0.49,0.91 -1.2,0.87 -0.04,1.23 -1.02,-0.96 -1.21,1.91 0.89,1.45 -0.46,1.73 4.21,4.61 0,0 -0.03,1.46 -2.32,-0.03 -2.06,2.78 -3.06,-1.46 -3.08,1.43 -0.87,-1.47 -1.71,0.96 -2.01,-2.1 -1.37,0.27 0.56,-1.27 -0.95,-0.32 -1.09,0.7 0.54,1.66 -2.15,1.76 -1.8,-5.5 0.44,-2.06 -1.39,0.31 -2.47,-2.17 -0.84,0.68 -2.18,-2 -2.08,1.37 -2.08,-1.33 -1.42,0.98 1.53,3.11 -1.69,2.69 -3.55,-1.51 -2.62,0.43 -1.72,-2.24 1.25,-1.82 -0.48,-1.2 -1.81,0.23 -0.4,-3.28 -1.83,-0.89 0.59,-2.06 -3.57,-2.1 -1.66,-1.91 0.21,-1.38 -1.55,-1.14 -0.19,-0.88 1.54,0.63 0.8,-1.58 -1.13,-0.29 0.17,-1.64 -2.93,-1.64 0.79,-2.22 -7.87,-5.01 -2.26,1.18 -1.66,-0.63 -0.69,-5.85 z"
     title="Saarland"
      id="blackLine" 
     stroke-width="0.8" stroke-linejoin="round"/>
     </mask>
     <mask id="outline-purple" maskUnits="userSpaceOnUse">
      <path
     d="m 5.044857,13.7902 2.37,0.79 0.83,-0.53 1.45,1.01 1.29,-0.56 2.9,1.65 2.86,-1.33 1.15,1.92 1.69,0.25 -0.08,-0.93 1.59,-1.28 1,0.26 0.24,-1.17 0.72,0.71 1.44,-0.45 0.36,1.18 1.28,-1.76 2.39,-0.37 4.04,-3.31 1.57,0.77 1.8,-2.42 0.9,0.62 1.1,-1.45 2.18,0.33 0.71,-2.12 0.74,0.87 2.47,-0.9 -0.37,1.37 2.73,-1.84 2.06,1.02 1.81,2.92 0.76,-0.61 1.37,1.05 3.16,-0.3 0.15,1.28 0.76,0.9 1.71,0.02 0.09,1.01 3.4,-1.83 0.47,4.61 1.79,0.3 0.35,1.04 -1.35,0.56 -0.53,3.22 1.65,0.98 -1.19,1.7 -2.51,1.14 0.27,1.22 2.42,1.65 0.09,2.68 4.09,0.94 0.77,1.5 2.18,-0.54 -0.98,7.39 -1.43,1.54 -1.71,-0.06 0.49,0.91 -1.2,0.87 -0.04,1.23 -1.02,-0.96 -1.21,1.91 0.89,1.45 -0.46,1.73 4.21,4.61 0,0 -0.03,1.46 -2.32,-0.03 -2.06,2.78 -3.06,-1.46 -3.08,1.43 -0.87,-1.47 -1.71,0.96 -2.01,-2.1 -1.37,0.27 0.56,-1.27 -0.95,-0.32 -1.09,0.7 0.54,1.66 -2.15,1.76 -1.8,-5.5 0.44,-2.06 -1.39,0.31 -2.47,-2.17 -0.84,0.68 -2.18,-2 -2.08,1.37 -2.08,-1.33 -1.42,0.98 1.53,3.11 -1.69,2.69 -3.55,-1.51 -2.62,0.43 -1.72,-2.24 1.25,-1.82 -0.48,-1.2 -1.81,0.23 -0.4,-3.28 -1.83,-0.89 0.59,-2.06 -3.57,-2.1 -1.66,-1.91 0.21,-1.38 -1.55,-1.14 -0.19,-0.88 1.54,0.63 0.8,-1.58 -1.13,-0.29 0.17,-1.64 -2.93,-1.64 0.79,-2.22 -7.87,-5.01 -2.26,1.18 -1.66,-0.63 -0.69,-5.85 z"
     title="Saarland"
      id="purpleLine" 
     stroke-width="1.5" stroke-linejoin="round" fill="#7F0082"/>
     <animate id="an2" attributeName="stroke-dashoffset" dur="1s" values="57.47486;0" begin="+1s" fill="freeze"/>
     </mask>
     <mask id="point" maskUnits="userSpaceOnUse">
   <circle r="0.7" cx="27.47486" cy="43.47486" fill="#7F0082" />
   </mask>
   <mask id="text" maskUnits="userSpaceOnUse">
   <text x="29.47486" y="42.47486" fill="#B3B3B3" font="Poppins" font-size="2pt">Saarland,</text>
   <text x="29.47486" y="45.47486" fill="#B3B3B3" font="Poppins" font-size="2pt">Germany</text>
   </mask>
   </defs>
   <path class="clef" mask="url(#landscape)" d="m 5.044857,13.7902 2.37,0.79 0.83,-0.53 1.45,1.01 1.29,-0.56 2.9,1.65 2.86,-1.33 1.15,1.92 1.69,0.25 -0.08,-0.93 1.59,-1.28 1,0.26 0.24,-1.17 0.72,0.71 1.44,-0.45 0.36,1.18 1.28,-1.76 2.39,-0.37 4.04,-3.31 1.57,0.77 1.8,-2.42 0.9,0.62 1.1,-1.45 2.18,0.33 0.71,-2.12 0.74,0.87 2.47,-0.9 -0.37,1.37 2.73,-1.84 2.06,1.02 1.81,2.92 0.76,-0.61 1.37,1.05 3.16,-0.3 0.15,1.28 0.76,0.9 1.71,0.02 0.09,1.01 3.4,-1.83 0.47,4.61 1.79,0.3 0.35,1.04 -1.35,0.56 -0.53,3.22 1.65,0.98 -1.19,1.7 -2.51,1.14 0.27,1.22 2.42,1.65 0.09,2.68 4.09,0.94 0.77,1.5 2.18,-0.54 -0.98,7.39 -1.43,1.54 -1.71,-0.06 0.49,0.91 -1.2,0.87 -0.04,1.23 -1.02,-0.96 -1.21,1.91 0.89,1.45 -0.46,1.73 4.21,4.61 0,0 -0.03,1.46 -2.32,-0.03 -2.06,2.78 -3.06,-1.46 -3.08,1.43 -0.87,-1.47 -1.71,0.96 -2.01,-2.1 -1.37,0.27 0.56,-1.27 -0.95,-0.32 -1.09,0.7 0.54,1.66 -2.15,1.76 -1.8,-5.5 0.44,-2.06 -1.39,0.31 -2.47,-2.17 -0.84,0.68 -2.18,-2 -2.08,1.37 -2.08,-1.33 -1.42,0.98 1.53,3.11 -1.69,2.69 -3.55,-1.51 -2.62,0.43 -1.72,-2.24 1.25,-1.82 -0.48,-1.2 -1.81,0.23 -0.4,-3.28 -1.83,-0.89 0.59,-2.06 -3.57,-2.1 -1.66,-1.91 0.21,-1.38 -1.55,-1.14 -0.19,-0.88 1.54,0.63 0.8,-1.58 -1.13,-0.29 0.17,-1.64 -2.93,-1.64 0.79,-2.22 -7.87,-5.01 -2.26,1.18 -1.66,-0.63 -0.69,-5.85 z" />
   <path class="clef" mask="url(#outline)" d="m 5.044857,13.7902 2.37,0.79 0.83,-0.53 1.45,1.01 1.29,-0.56 2.9,1.65 2.86,-1.33 1.15,1.92 1.69,0.25 -0.08,-0.93 1.59,-1.28 1,0.26 0.24,-1.17 0.72,0.71 1.44,-0.45 0.36,1.18 1.28,-1.76 2.39,-0.37 4.04,-3.31 1.57,0.77 1.8,-2.42 0.9,0.62 1.1,-1.45 2.18,0.33 0.71,-2.12 0.74,0.87 2.47,-0.9 -0.37,1.37 2.73,-1.84 2.06,1.02 1.81,2.92 0.76,-0.61 1.37,1.05 3.16,-0.3 0.15,1.28 0.76,0.9 1.71,0.02 0.09,1.01 3.4,-1.83 0.47,4.61 1.79,0.3 0.35,1.04 -1.35,0.56 -0.53,3.22 1.65,0.98 -1.19,1.7 -2.51,1.14 0.27,1.22 2.42,1.65 0.09,2.68 4.09,0.94 0.77,1.5 2.18,-0.54 -0.98,7.39 -1.43,1.54 -1.71,-0.06 0.49,0.91 -1.2,0.87 -0.04,1.23 -1.02,-0.96 -1.21,1.91 0.89,1.45 -0.46,1.73 4.21,4.61 0,0 -0.03,1.46 -2.32,-0.03 -2.06,2.78 -3.06,-1.46 -3.08,1.43 -0.87,-1.47 -1.71,0.96 -2.01,-2.1 -1.37,0.27 0.56,-1.27 -0.95,-0.32 -1.09,0.7 0.54,1.66 -2.15,1.76 -1.8,-5.5 0.44,-2.06 -1.39,0.31 -2.47,-2.17 -0.84,0.68 -2.18,-2 -2.08,1.37 -2.08,-1.33 -1.42,0.98 1.53,3.11 -1.69,2.69 -3.55,-1.51 -2.62,0.43 -1.72,-2.24 1.25,-1.82 -0.48,-1.2 -1.81,0.23 -0.4,-3.28 -1.83,-0.89 0.59,-2.06 -3.57,-2.1 -1.66,-1.91 0.21,-1.38 -1.55,-1.14 -0.19,-0.88 1.54,0.63 0.8,-1.58 -1.13,-0.29 0.17,-1.64 -2.93,-1.64 0.79,-2.22 -7.87,-5.01 -2.26,1.18 -1.66,-0.63 -0.69,-5.85 z" />
   <path class="clef" mask="url(#outline-purple)"  d="m 5.044857,13.7902 2.37,0.79 0.83,-0.53 1.45,1.01 1.29,-0.56 2.9,1.65 2.86,-1.33 1.15,1.92 1.69,0.25 -0.08,-0.93 1.59,-1.28 1,0.26 0.24,-1.17 0.72,0.71 1.44,-0.45 0.36,1.18 1.28,-1.76 2.39,-0.37 4.04,-3.31 1.57,0.77 1.8,-2.42 0.9,0.62 1.1,-1.45 2.18,0.33 0.71,-2.12 0.74,0.87 2.47,-0.9 -0.37,1.37 2.73,-1.84 2.06,1.02 1.81,2.92 0.76,-0.61 1.37,1.05 3.16,-0.3 0.15,1.28 0.76,0.9 1.71,0.02 0.09,1.01 3.4,-1.83 0.47,4.61 1.79,0.3 0.35,1.04 -1.35,0.56 -0.53,3.22 1.65,0.98 -1.19,1.7 -2.51,1.14 0.27,1.22 2.42,1.65 0.09,2.68 4.09,0.94 0.77,1.5 2.18,-0.54 -0.98,7.39 -1.43,1.54 -1.71,-0.06 0.49,0.91 -1.2,0.87 -0.04,1.23 -1.02,-0.96 -1.21,1.91 0.89,1.45 -0.46,1.73 4.21,4.61 0,0 -0.03,1.46 -2.32,-0.03 -2.06,2.78 -3.06,-1.46 -3.08,1.43 -0.87,-1.47 -1.71,0.96 -2.01,-2.1 -1.37,0.27 0.56,-1.27 -0.95,-0.32 -1.09,0.7 0.54,1.66 -2.15,1.76 -1.8,-5.5 0.44,-2.06 -1.39,0.31 -2.47,-2.17 -0.84,0.68 -2.18,-2 -2.08,1.37 -2.08,-1.33 -1.42,0.98 1.53,3.11 -1.69,2.69 -3.55,-1.51 -2.62,0.43 -1.72,-2.24 1.25,-1.82 -0.48,-1.2 -1.81,0.23 -0.4,-3.28 -1.83,-0.89 0.59,-2.06 -3.57,-2.1 -1.66,-1.91 0.21,-1.38 -1.55,-1.14 -0.19,-0.88 1.54,0.63 0.8,-1.58 -1.13,-0.29 0.17,-1.64 -2.93,-1.64 0.79,-2.22 -7.87,-5.01 -2.26,1.18 -1.66,-0.63 -0.69,-5.85 z"/>

   <path class="clef" mask="url(#point)" />
   <path class="clef dot" mask="url(#outline-purple)"/>
   <circle r="0.7" cx="27.47486" cy="43.47486" fill="#7F0082" />
   <text x="29.47486" y="42.47486" fill="#B3B3B3" font="Poppins" font-size="2pt">Saarland,</text>
   <text x="29.47486" y="45.47486" fill="#B3B3B3" font="Poppins" font-size="2pt">Germany</text>
   </g>
</svg>